D:\school\WTK\thesis\model\3dpredictsim\Results\debug_batch\Pog_s1_tmt_aCst_d05_k800_ig24_pas_GRF.mot
nRows=10
nColumns=19

name D:\school\WTK\thesis\model\3dpredictsim\Results\debug_batch\Pog_s1_tmt_aCst_d05_k800_ig24_pas_GRF.mot
datacolumns 19
datarows 10
range 0.5571552760 0.6574432256
endheader
time 	ground_force_vx	ground_force_vy	ground_force_vz	ground_force_px	ground_force_py	ground_force_pz	1_ground_force_vx	1_ground_force_vy	1_ground_force_vz	1_ground_force_px	1_ground_force_py	1_ground_force_pz	ground_torque_x	ground_torque_y	ground_torque_z	1_ground_torque_x	1_ground_torque_y	1_ground_torque_z
        0.5571552760	       95.0130847198	      477.5440836180	        5.2648948509	        0.3747401093	        0.0000000000	        0.0348950239	      -95.7732047946	       89.0723059549	      -40.8823921709	        0.8668865149	        0.0000000000	       -0.0377264171	        0.0000000000	        0.0000000000	        0.0000000000	        0.0000000000	        0.0000000000	        0.0000000000	
        0.5682983815	       76.3933090651	      394.9609076689	        9.8994815869	        0.3788722245	        0.0000000000	        0.0336170270	      -87.5591276331	      190.5394881758	      -74.4741162271	        0.8730986315	        0.0000000000	       -0.0359550094	        0.0000000000	        0.0000000000	        0.0000000000	        0.0000000000	        0.0000000000	        0.0000000000	
        0.5794414870	       53.6033523508	      302.0884427905	        7.5831454587	        0.3855137557	        0.0000000000	        0.0309641976	      -44.0511642991	      347.9825739277	      -16.3294620084	        0.8770608332	        0.0000000000	       -0.0342143399	        0.0000000000	        0.0000000000	        0.0000000000	        0.0000000000	        0.0000000000	        0.0000000000	
        0.5905845925	       25.0895008624	      200.3200197854	        5.8638770886	        0.3979156198	        0.0000000000	        0.0252838703	      -49.4220381977	      513.1472820882	        2.2490766601	        0.8822521542	        0.0000000000	       -0.0351534906	        0.0000000000	        0.0000000000	        0.0000000000	        0.0000000000	        0.0000000000	        0.0000000000	
        0.6017276980	        6.3464377288	      140.3885250691	       10.3941408069	        0.4099784133	        0.0000000000	        0.0191340591	      -84.8988869806	      689.7983188223	        9.5813805138	        0.8903715959	        0.0000000000	       -0.0376209425	        0.0000000000	        0.0000000000	        0.0000000000	        0.0000000000	        0.0000000000	        0.0000000000	
        0.6128708036	        1.2720786317	      109.3400352834	       11.4553867999	        0.4100572045	        0.0000000000	        0.0193863620	     -107.1277502231	      800.1895717607	       12.4860044026	        0.8960428147	        0.0000000000	       -0.0392349185	        0.0000000000	        0.0000000000	        0.0000000000	        0.0000000000	        0.0000000000	        0.0000000000	
        0.6240139091	       -2.3341617416	       71.5461512279	       10.7095978458	        0.4105556503	        0.0000000000	        0.0194608254	     -111.3556129821	      839.2352715166	       13.3586306448	        0.8999518663	        0.0000000000	       -0.0402004154	        0.0000000000	        0.0000000000	        0.0000000000	        0.0000000000	        0.0000000000	        0.0000000000	
        0.6351570146	       -8.3021176323	       29.5371510647	        5.7652861042	        0.4102009751	        0.0000000000	        0.0192900964	     -106.3872303859	      835.3246726562	       13.4909606224	        0.9030966516	        0.0000000000	       -0.0407654838	        0.0000000000	        0.0000000000	        0.0000000000	        0.0000000000	        0.0000000000	        0.0000000000	
        0.6463001201	        0.1027286931	       -0.1014688987	       -0.0018100022	        0.0000000000	        0.0000000000	        0.0000000000	      -97.2331412581	      817.2957398350	       13.8407193725	        0.9063400392	        0.0000000000	       -0.0410481357	        0.0000000000	        0.0000000000	        0.0000000000	        0.0000000000	        0.0000000000	        0.0000000000	
        0.6574432256	        0.0001969572	       -0.0001595742	        0.0000113251	        0.0000000000	        0.0000000000	        0.0000000000	      -85.1293911352	      788.3488424287	       14.5233974869	        0.9097233351	        0.0000000000	       -0.0411652902	        0.0000000000	        0.0000000000	        0.0000000000	        0.0000000000	        0.0000000000	        0.0000000000	
